<?xml version="1.0" encoding="UTF-8" standalone="no"?>
<!DOCTYPE svg PUBLIC "-//W3C//DTD SVG 1.1//EN" "http://www.w3.org/Graphics/SVG/1.1/DTD/svg11.dtd">
<svg xmlns="http://www.w3.org/2000/svg" xmlns:xlink="http://www.w3.org/1999/xlink" xmlns:serif="http://www.serif.com/" width="300" height="72" viewBox="0 0 1530 367" version="1.1" xml:space="preserve" style="fill-rule:evenodd;clip-rule:evenodd;stroke-linejoin:round;stroke-miterlimit:2;">
    <g id="Font" transform="matrix(4.16667,0,0,4.16667,0,0)">
        <g transform="matrix(1,0,0,1,238.144,75.5176)">
            <path d="M0,8.031L0,6.544L-0.032,6.544C-0.299,7.098 -0.686,7.522 -1.192,7.816C-1.698,8.109 -2.262,8.256 -2.88,8.256C-3.402,8.256 -3.848,8.183 -4.216,8.039C-4.584,7.895 -4.883,7.69 -5.112,7.424C-5.342,7.157 -5.51,6.832 -5.616,6.447C-5.723,6.064 -5.776,5.627 -5.776,5.135L-5.776,-0.225L-4.768,-0.225L-4.768,5.152C-4.747,5.898 -4.573,6.464 -4.248,6.847C-3.923,7.232 -3.36,7.424 -2.56,7.424C-2.123,7.424 -1.749,7.33 -1.44,7.143C-1.131,6.957 -0.875,6.709 -0.672,6.4C-0.47,6.09 -0.32,5.736 -0.224,5.336C-0.128,4.935 -0.08,4.527 -0.08,4.111L-0.08,-0.225L0.928,-0.225L0.928,8.031L0,8.031Z" style="fill:rgb(142,88,26);fill-rule:nonzero;"/>
        </g>
        <g transform="matrix(-1,0,0,1,482.993,67.8)">
            <rect x="240.992" y="4.325" width="1.009" height="11.424" style="fill:rgb(142,88,26);"/>
        </g>
        <g transform="matrix(1,0,0,1,247.216,81.1497)">
            <path d="M0,-5.857L0,-5.009L-1.681,-5.009L-1.681,0.559C-1.681,0.89 -1.635,1.149 -1.544,1.335C-1.454,1.522 -1.227,1.625 -0.864,1.647C-0.576,1.647 -0.288,1.631 0,1.6L0,2.448C-0.149,2.448 -0.299,2.453 -0.448,2.463C-0.598,2.474 -0.747,2.479 -0.896,2.479C-1.568,2.479 -2.038,2.349 -2.305,2.087C-2.571,1.827 -2.699,1.343 -2.688,0.639L-2.688,-5.009L-4.128,-5.009L-4.128,-5.857L-2.688,-5.857L-2.688,-8.336L-1.681,-8.336L-1.681,-5.857L0,-5.857Z" style="fill:rgb(142,88,26);fill-rule:nonzero;"/>
        </g>
        <g transform="matrix(1,0,0,1,0,67.8)">
            <path d="M249.696,15.749L248.687,15.749L248.687,7.493L249.696,7.493L249.696,15.749ZM249.696,5.941L248.687,5.941L248.687,4.325L249.696,4.325L249.696,5.941Z" style="fill:rgb(142,88,26);fill-rule:nonzero;"/>
        </g>
        <g transform="matrix(1,0,0,1,252.559,83.3087)">
            <path d="M0,-8.016L0,-6.623L0.048,-6.623C0.314,-7.135 0.664,-7.536 1.097,-7.824C1.528,-8.112 2.08,-8.256 2.752,-8.256C3.296,-8.256 3.79,-8.121 4.232,-7.856C4.675,-7.588 4.971,-7.184 5.12,-6.639C5.365,-7.184 5.729,-7.588 6.208,-7.856C6.688,-8.121 7.2,-8.256 7.744,-8.256C9.568,-8.256 10.48,-7.289 10.48,-5.36L10.48,0.24L9.473,0.24L9.473,-5.311C9.473,-5.995 9.328,-6.514 9.04,-6.871C8.752,-7.229 8.245,-7.408 7.521,-7.408C7.083,-7.408 6.721,-7.325 6.433,-7.16C6.145,-6.995 5.915,-6.773 5.744,-6.495C5.573,-6.218 5.453,-5.901 5.385,-5.543C5.314,-5.186 5.28,-4.816 5.28,-4.432L5.28,0.24L4.272,0.24L4.272,-5.36C4.272,-5.637 4.243,-5.901 4.185,-6.152C4.126,-6.403 4.029,-6.621 3.896,-6.807C3.763,-6.995 3.584,-7.141 3.36,-7.247C3.137,-7.354 2.864,-7.408 2.544,-7.408C2.117,-7.408 1.747,-7.33 1.433,-7.176C1.117,-7.021 0.861,-6.807 0.664,-6.536C0.467,-6.264 0.32,-5.944 0.225,-5.576C0.128,-5.207 0.08,-4.805 0.08,-4.368L0.08,0.24L-0.928,0.24L-0.928,-8.016L0,-8.016Z" style="fill:rgb(142,88,26);fill-rule:nonzero;"/>
        </g>
        <g transform="matrix(1,0,0,1,270.208,79.7888)">
            <path d="M0,-0.752C-0.064,-0.635 -0.187,-0.549 -0.368,-0.496C-0.55,-0.442 -0.71,-0.404 -0.848,-0.384C-1.274,-0.309 -1.715,-0.242 -2.168,-0.184C-2.621,-0.125 -3.035,-0.037 -3.408,0.08C-3.781,0.197 -4.088,0.365 -4.328,0.584C-4.568,0.803 -4.688,1.115 -4.688,1.519C-4.688,1.776 -4.638,2.003 -4.536,2.2C-4.435,2.398 -4.299,2.568 -4.128,2.713C-3.957,2.856 -3.76,2.966 -3.536,3.04C-3.312,3.115 -3.083,3.152 -2.848,3.152C-2.464,3.152 -2.096,3.094 -1.744,2.977C-1.392,2.859 -1.086,2.688 -0.824,2.465C-0.562,2.24 -0.354,1.969 -0.2,1.648C-0.046,1.328 0.032,0.966 0.032,0.56L0.032,-0.752L0,-0.752ZM-5.04,-3.216C-4.869,-3.568 -4.638,-3.856 -4.344,-4.08C-4.051,-4.304 -3.707,-4.469 -3.312,-4.576C-2.918,-4.682 -2.48,-4.736 -2,-4.736C-1.638,-4.736 -1.274,-4.701 -0.912,-4.632C-0.55,-4.563 -0.224,-4.432 0.064,-4.24C0.352,-4.048 0.587,-3.778 0.768,-3.432C0.949,-3.085 1.04,-2.635 1.04,-2.08L1.04,2.305C1.04,2.71 1.237,2.912 1.632,2.912C1.749,2.912 1.856,2.891 1.952,2.848L1.952,3.696C1.835,3.718 1.73,3.734 1.64,3.744C1.549,3.755 1.435,3.76 1.296,3.76C1.04,3.76 0.835,3.726 0.68,3.656C0.525,3.587 0.405,3.488 0.32,3.36C0.234,3.232 0.179,3.08 0.152,2.904C0.125,2.728 0.112,2.533 0.112,2.32L0.08,2.32C-0.102,2.587 -0.285,2.824 -0.472,3.032C-0.659,3.24 -0.867,3.414 -1.096,3.553C-1.325,3.691 -1.587,3.797 -1.88,3.872C-2.174,3.947 -2.522,3.984 -2.928,3.984C-3.312,3.984 -3.672,3.939 -4.008,3.848C-4.344,3.758 -4.638,3.613 -4.888,3.416C-5.139,3.219 -5.336,2.969 -5.48,2.664C-5.624,2.36 -5.696,2 -5.696,1.584C-5.696,1.008 -5.568,0.558 -5.312,0.232C-5.056,-0.093 -4.718,-0.341 -4.296,-0.512C-3.875,-0.682 -3.4,-0.803 -2.872,-0.871C-2.344,-0.941 -1.808,-1.008 -1.264,-1.072C-1.051,-1.093 -0.864,-1.119 -0.704,-1.152C-0.544,-1.184 -0.411,-1.24 -0.304,-1.32C-0.197,-1.4 -0.115,-1.509 -0.056,-1.648C0.003,-1.786 0.032,-1.968 0.032,-2.191C0.032,-2.533 -0.024,-2.813 -0.136,-3.031C-0.248,-3.25 -0.402,-3.424 -0.6,-3.552C-0.798,-3.68 -1.026,-3.768 -1.288,-3.816C-1.55,-3.863 -1.829,-3.888 -2.128,-3.888C-2.768,-3.888 -3.291,-3.736 -3.696,-3.432C-4.102,-3.128 -4.314,-2.64 -4.336,-1.968L-5.344,-1.968C-5.312,-2.447 -5.211,-2.863 -5.04,-3.216" style="fill:rgb(142,88,26);fill-rule:nonzero;"/>
        </g>
        <g transform="matrix(1,0,0,1,276.544,81.1497)">
            <path d="M0,-5.857L0,-5.009L-1.681,-5.009L-1.681,0.559C-1.681,0.89 -1.635,1.149 -1.544,1.335C-1.454,1.522 -1.227,1.625 -0.864,1.647C-0.576,1.647 -0.288,1.631 0,1.6L0,2.448C-0.149,2.448 -0.299,2.453 -0.448,2.463C-0.598,2.474 -0.747,2.479 -0.896,2.479C-1.568,2.479 -2.038,2.349 -2.305,2.087C-2.571,1.827 -2.699,1.343 -2.688,0.639L-2.688,-5.009L-4.128,-5.009L-4.128,-5.857L-2.688,-5.857L-2.688,-8.336L-1.681,-8.336L-1.681,-5.857L0,-5.857Z" style="fill:rgb(142,88,26);fill-rule:nonzero;"/>
        </g>
        <g transform="matrix(1,0,0,1,283.736,81.0849)">
            <path d="M0,-3.344C-0.123,-3.697 -0.296,-4.008 -0.521,-4.281C-0.744,-4.552 -1.017,-4.771 -1.336,-4.936C-1.656,-5.101 -2.019,-5.184 -2.424,-5.184C-2.84,-5.184 -3.208,-5.101 -3.528,-4.936C-3.849,-4.771 -4.12,-4.552 -4.345,-4.281C-4.568,-4.008 -4.747,-3.693 -4.88,-3.335C-5.014,-2.978 -5.102,-2.613 -5.145,-2.24L0.2,-2.24C0.188,-2.624 0.122,-2.991 0,-3.344M-4.992,-0.264C-4.891,0.126 -4.729,0.475 -4.504,0.784C-4.28,1.093 -3.998,1.35 -3.656,1.552C-3.315,1.755 -2.904,1.856 -2.424,1.856C-1.688,1.856 -1.112,1.665 -0.696,1.28C-0.28,0.896 0.008,0.384 0.168,-0.256L1.176,-0.256C0.962,0.682 0.57,1.408 0,1.921C-0.571,2.432 -1.379,2.688 -2.424,2.688C-3.075,2.688 -3.638,2.573 -4.112,2.344C-4.587,2.115 -4.974,1.8 -5.272,1.4C-5.571,1.001 -5.792,0.536 -5.937,0.009C-6.08,-0.52 -6.152,-1.077 -6.152,-1.663C-6.152,-2.208 -6.08,-2.741 -5.937,-3.264C-5.792,-3.786 -5.571,-4.253 -5.272,-4.663C-4.974,-5.074 -4.587,-5.406 -4.112,-5.656C-3.638,-5.907 -3.075,-6.032 -2.424,-6.032C-1.763,-6.032 -1.198,-5.898 -0.729,-5.632C-0.259,-5.365 0.122,-5.016 0.416,-4.583C0.709,-4.152 0.92,-3.656 1.048,-3.096C1.176,-2.536 1.229,-1.968 1.208,-1.392L-5.145,-1.392C-5.145,-1.029 -5.094,-0.654 -4.992,-0.264" style="fill:rgb(142,88,26);fill-rule:nonzero;"/>
        </g>
        <g transform="matrix(1,0,0,1,296.488,81.0849)">
            <path d="M0,-3.344C-0.123,-3.697 -0.296,-4.008 -0.521,-4.281C-0.744,-4.552 -1.017,-4.771 -1.336,-4.936C-1.656,-5.101 -2.019,-5.184 -2.424,-5.184C-2.84,-5.184 -3.208,-5.101 -3.528,-4.936C-3.849,-4.771 -4.12,-4.552 -4.345,-4.281C-4.568,-4.008 -4.747,-3.693 -4.88,-3.335C-5.014,-2.978 -5.102,-2.613 -5.145,-2.24L0.2,-2.24C0.188,-2.624 0.122,-2.991 0,-3.344M-4.992,-0.264C-4.891,0.126 -4.729,0.475 -4.504,0.784C-4.28,1.093 -3.998,1.35 -3.656,1.552C-3.315,1.755 -2.904,1.856 -2.424,1.856C-1.688,1.856 -1.112,1.665 -0.696,1.28C-0.28,0.896 0.008,0.384 0.168,-0.256L1.176,-0.256C0.962,0.682 0.57,1.408 0,1.921C-0.571,2.432 -1.379,2.688 -2.424,2.688C-3.075,2.688 -3.638,2.573 -4.112,2.344C-4.587,2.115 -4.974,1.8 -5.272,1.4C-5.571,1.001 -5.792,0.536 -5.937,0.009C-6.08,-0.52 -6.152,-1.077 -6.152,-1.663C-6.152,-2.208 -6.08,-2.741 -5.937,-3.264C-5.792,-3.786 -5.571,-4.253 -5.272,-4.663C-4.974,-5.074 -4.587,-5.406 -4.112,-5.656C-3.638,-5.907 -3.075,-6.032 -2.424,-6.032C-1.763,-6.032 -1.198,-5.898 -0.729,-5.632C-0.259,-5.365 0.122,-5.016 0.416,-4.583C0.709,-4.152 0.92,-3.656 1.048,-3.096C1.176,-2.536 1.229,-1.968 1.208,-1.392L-5.145,-1.392C-5.145,-1.029 -5.094,-0.654 -4.992,-0.264" style="fill:rgb(142,88,26);fill-rule:nonzero;"/>
        </g>
        <g transform="matrix(1,0,0,1,299.863,75.2051)">
            <path d="M0,5.488C0.102,5.91 0.262,6.285 0.48,6.616C0.699,6.947 0.979,7.217 1.32,7.424C1.662,7.633 2.072,7.736 2.553,7.736C3.086,7.736 3.536,7.633 3.904,7.424C4.272,7.217 4.571,6.947 4.801,6.616C5.029,6.285 5.195,5.91 5.297,5.488C5.397,5.066 5.448,4.642 5.448,4.217C5.448,3.789 5.397,3.365 5.297,2.944C5.195,2.523 5.029,2.146 4.801,1.816C4.571,1.486 4.272,1.217 3.904,1.008C3.536,0.801 3.086,0.696 2.553,0.696C2.072,0.696 1.662,0.801 1.32,1.008C0.979,1.217 0.699,1.486 0.48,1.816C0.262,2.146 0.102,2.523 0,2.944C-0.102,3.365 -0.151,3.789 -0.151,4.217C-0.151,4.642 -0.102,5.066 0,5.488M5.528,8.343L5.528,6.776L5.496,6.776C5.39,7.043 5.232,7.288 5.024,7.511C4.816,7.736 4.579,7.926 4.312,8.08C4.046,8.234 3.761,8.355 3.456,8.44C3.152,8.525 2.851,8.568 2.553,8.568C1.923,8.568 1.376,8.453 0.912,8.224C0.448,7.995 0.062,7.679 -0.248,7.28C-0.557,6.881 -0.786,6.416 -0.936,5.888C-1.085,5.36 -1.159,4.802 -1.159,4.217C-1.159,3.63 -1.085,3.072 -0.936,2.545C-0.786,2.015 -0.557,1.552 -0.248,1.152C0.062,0.752 0.448,0.435 0.912,0.2C1.376,-0.034 1.923,-0.153 2.553,-0.153C2.861,-0.153 3.163,-0.115 3.456,-0.039C3.75,0.035 4.024,0.15 4.28,0.304C4.536,0.459 4.763,0.648 4.96,0.872C5.157,1.095 5.31,1.357 5.416,1.656L5.448,1.656L5.448,-3.08L6.456,-3.08L6.456,8.343L5.528,8.343Z" style="fill:rgb(142,88,26);fill-rule:nonzero;"/>
        </g>
        <g transform="matrix(1,0,0,1,0,67.8)">
            <path d="M309.263,15.749L308.254,15.749L308.254,7.493L309.263,7.493L309.263,15.749ZM309.263,5.941L308.254,5.941L308.254,4.325L309.263,4.325L309.263,5.941Z" style="fill:rgb(142,88,26);fill-rule:nonzero;"/>
        </g>
        <g transform="matrix(1,0,0,1,314.479,81.1497)">
            <path d="M0,-5.857L0,-5.009L-1.681,-5.009L-1.681,0.559C-1.681,0.89 -1.635,1.149 -1.544,1.335C-1.454,1.522 -1.227,1.625 -0.864,1.647C-0.576,1.647 -0.288,1.631 0,1.6L0,2.448C-0.149,2.448 -0.299,2.453 -0.448,2.463C-0.598,2.474 -0.747,2.479 -0.896,2.479C-1.568,2.479 -2.038,2.349 -2.305,2.087C-2.571,1.827 -2.699,1.343 -2.688,0.639L-2.688,-5.009L-4.128,-5.009L-4.128,-5.857L-2.688,-5.857L-2.688,-8.336L-1.681,-8.336L-1.681,-5.857L0,-5.857Z" style="fill:rgb(142,88,26);fill-rule:nonzero;"/>
        </g>
        <g transform="matrix(1,0,0,1,0,67.8)">
            <path d="M316.96,15.749L315.951,15.749L315.951,7.493L316.96,7.493L316.96,15.749ZM316.96,5.941L315.951,5.941L315.951,4.325L316.96,4.325L316.96,5.941Z" style="fill:rgb(142,88,26);fill-rule:nonzero;"/>
        </g>
        <g transform="matrix(1,0,0,1,321.118,82.6208)">
            <path d="M0,-6.416C-0.362,-6.213 -0.664,-5.946 -0.903,-5.615C-1.144,-5.285 -1.325,-4.909 -1.447,-4.488C-1.57,-4.066 -1.632,-3.637 -1.632,-3.199C-1.632,-2.762 -1.57,-2.333 -1.447,-1.912C-1.325,-1.49 -1.144,-1.114 -0.903,-0.783C-0.664,-0.453 -0.362,-0.186 0,0.016C0.363,0.219 0.784,0.32 1.265,0.32C1.744,0.32 2.166,0.219 2.528,0.016C2.891,-0.186 3.192,-0.453 3.433,-0.783C3.673,-1.114 3.854,-1.49 3.977,-1.912C4.099,-2.333 4.16,-2.762 4.16,-3.199C4.16,-3.637 4.099,-4.066 3.977,-4.488C3.854,-4.909 3.673,-5.285 3.433,-5.615C3.192,-5.946 2.891,-6.213 2.528,-6.416C2.166,-6.618 1.744,-6.72 1.265,-6.72C0.784,-6.72 0.363,-6.618 0,-6.416M2.937,-7.216C3.422,-6.98 3.83,-6.666 4.16,-6.271C4.491,-5.877 4.741,-5.416 4.912,-4.888C5.083,-4.359 5.168,-3.797 5.168,-3.199C5.168,-2.602 5.083,-2.039 4.912,-1.512C4.741,-0.984 4.491,-0.522 4.16,-0.128C3.83,0.268 3.422,0.579 2.937,0.809C2.451,1.037 1.894,1.152 1.265,1.152C0.635,1.152 0.078,1.037 -0.407,0.809C-0.894,0.579 -1.301,0.268 -1.632,-0.128C-1.962,-0.522 -2.213,-0.984 -2.384,-1.512C-2.555,-2.039 -2.64,-2.602 -2.64,-3.199C-2.64,-3.797 -2.555,-4.359 -2.384,-4.888C-2.213,-5.416 -1.962,-5.877 -1.632,-6.271C-1.301,-6.666 -0.894,-6.98 -0.407,-7.216C0.078,-7.45 0.635,-7.568 1.265,-7.568C1.894,-7.568 2.451,-7.45 2.937,-7.216" style="fill:rgb(142,88,26);fill-rule:nonzero;"/>
        </g>
        <g transform="matrix(1,0,0,1,328.783,83.3087)">
            <path d="M0,-8.016L0,-6.592L0.032,-6.592C0.224,-7.092 0.565,-7.495 1.056,-7.799C1.546,-8.104 2.085,-8.256 2.672,-8.256C3.248,-8.256 3.73,-8.181 4.12,-8.032C4.509,-7.882 4.821,-7.672 5.056,-7.4C5.29,-7.127 5.456,-6.794 5.552,-6.4C5.647,-6.004 5.696,-5.563 5.696,-5.072L5.696,0.24L4.687,0.24L4.687,-4.912C4.687,-5.264 4.656,-5.592 4.592,-5.896C4.528,-6.2 4.416,-6.463 4.256,-6.688C4.096,-6.912 3.88,-7.088 3.607,-7.215C3.336,-7.344 2.997,-7.408 2.592,-7.408C2.187,-7.408 1.826,-7.336 1.512,-7.192C1.197,-7.047 0.931,-6.85 0.712,-6.6C0.493,-6.349 0.322,-6.05 0.2,-5.703C0.077,-5.357 0.011,-4.981 0,-4.576L0,0.24L-1.008,0.24L-1.008,-8.016L0,-8.016Z" style="fill:rgb(142,88,26);fill-rule:nonzero;"/>
        </g>
    </g>
    <g id="Hilfslinien---Vorlagen" serif:id="Hilfslinien / Vorlagen" transform="matrix(4.16667,0,0,4.16667,0,0)">
        <g transform="matrix(1,0,0,1,106.203,54.2317)">
            <path d="M0,-49.98L16.59,-6.16L33.81,-49.98L40.81,-49.98L40.81,0L36.05,0L36.05,-43.19L35.91,-43.19L18.83,0L14.35,0L-2.1,-43.19L-2.24,-43.19L-2.24,0L-7,0L-7,-49.98L0,-49.98Z" style="fill:rgb(36,31,31);fill-rule:nonzero;"/>
        </g>
        <g transform="matrix(1,0,0,1,191.533,54.2317)">
            <path d="M0,-49.98L0,-45.919L-29.75,-45.919L-29.75,-27.86L-1.89,-27.86L-1.89,-23.799L-29.75,-23.799L-29.75,-4.059L0.35,-4.059L0.35,0L-34.51,0L-34.51,-49.98L0,-49.98Z" style="fill:rgb(36,31,31);fill-rule:nonzero;"/>
        </g>
        <g transform="matrix(1,0,0,1,238.011,4.1822)">
            <path d="M0,50.05L-0.63,40.95L-0.77,40.95C-1.609,42.724 -2.648,44.252 -3.885,45.535C-5.122,46.82 -6.487,47.869 -7.979,48.685C-9.474,49.502 -11.072,50.096 -12.774,50.47C-14.479,50.843 -16.24,51.03 -18.06,51.03C-21.979,51.03 -25.422,50.318 -28.385,48.895C-31.349,47.472 -33.81,45.57 -35.77,43.19C-37.729,40.81 -39.2,38.057 -40.18,34.93C-41.16,31.804 -41.649,28.514 -41.649,25.06C-41.649,21.607 -41.16,18.317 -40.18,15.19C-39.2,12.064 -37.729,9.299 -35.77,6.895C-33.81,4.492 -31.349,2.579 -28.385,1.155C-25.422,-0.268 -21.979,-0.98 -18.06,-0.98C-15.447,-0.98 -12.974,-0.63 -10.64,0.07C-8.307,0.77 -6.229,1.82 -4.41,3.22C-2.59,4.62 -1.05,6.347 0.21,8.4C1.47,10.454 2.333,12.857 2.8,15.61L-1.96,15.61C-2.1,14.164 -2.579,12.705 -3.395,11.235C-4.212,9.765 -5.309,8.424 -6.685,7.21C-8.062,5.997 -9.707,5.005 -11.62,4.235C-13.534,3.465 -15.68,3.08 -18.06,3.08C-21.374,3.08 -24.22,3.71 -26.6,4.97C-28.979,6.23 -30.929,7.899 -32.444,9.975C-33.962,12.052 -35.082,14.397 -35.805,17.01C-36.529,19.624 -36.89,22.307 -36.89,25.06C-36.89,27.767 -36.529,30.439 -35.805,33.075C-35.082,35.712 -33.962,38.07 -32.444,40.145C-30.929,42.222 -28.979,43.89 -26.6,45.15C-24.22,46.41 -21.374,47.04 -18.06,47.04C-15.307,47.04 -12.845,46.585 -10.675,45.675C-8.505,44.765 -6.674,43.494 -5.18,41.86C-3.687,40.227 -2.566,38.29 -1.819,36.05C-1.074,33.81 -0.724,31.36 -0.77,28.7L-17.78,28.7L-17.78,24.64L3.431,24.64L3.431,50.05L0,50.05Z" style="fill:rgb(36,31,31);fill-rule:nonzero;"/>
        </g>
        <g transform="matrix(1,0,0,1,277.561,23.8515)">
            <path d="M0,10.781L-9.659,-14.839L-19.67,10.781L0,10.781ZM-6.789,-19.6L12.811,30.381L7.7,30.381L1.61,14.841L-21.14,14.841L-27.159,30.381L-32.199,30.381L-12.109,-19.6L-6.789,-19.6Z" style="fill:rgb(36,31,31);fill-rule:nonzero;"/>
        </g>
        <g transform="matrix(1,0,0,1,300.381,54.2317)">
            <path d="M0,-49.98L29.12,-7.7L29.26,-7.7L29.26,-49.98L34.021,-49.98L34.021,0L28.7,0L-0.42,-42.28L-0.56,-42.28L-0.56,0L-5.319,0L-5.319,-49.98L0,-49.98Z" style="fill:rgb(36,31,31);fill-rule:nonzero;"/>
        </g>
        <g transform="matrix(1,0,0,1,361.321,18.4037)">
            <path d="M0,3.013C-0.511,1.843 -1.2,0.824 -2.07,-0.047C-2.94,-0.917 -3.96,-1.606 -5.13,-2.117C-6.301,-2.627 -7.561,-2.882 -8.91,-2.882C-10.261,-2.882 -11.521,-2.627 -12.69,-2.117C-13.86,-1.606 -14.881,-0.917 -15.75,-0.047C-16.621,0.824 -17.311,1.843 -17.82,3.013C-18.331,4.184 -18.585,5.444 -18.585,6.793C-18.585,8.144 -18.331,9.404 -17.82,10.574C-17.311,11.743 -16.621,12.764 -15.75,13.633C-14.881,14.504 -13.86,15.194 -12.69,15.703C-11.521,16.214 -10.261,16.468 -8.91,16.468C-7.561,16.468 -6.301,16.214 -5.13,15.703C-3.96,15.194 -2.94,14.504 -2.07,13.633C-1.2,12.764 -0.511,11.743 0,10.574C0.51,9.404 0.765,8.144 0.765,6.793C0.765,5.444 0.51,4.184 0,3.013M-1.192,-9.969C-1.838,-10.853 -2.565,-11.551 -3.375,-12.061C-4.186,-12.571 -5.025,-12.924 -5.896,-13.119C-6.766,-13.314 -7.591,-13.412 -8.37,-13.412C-10.65,-13.412 -12.495,-12.841 -13.905,-11.702C-15.315,-10.561 -16.403,-9.121 -17.168,-7.382C-17.933,-5.641 -18.436,-3.766 -18.676,-1.757C-18.916,0.253 -19.021,2.144 -18.99,3.913L-18.9,3.913C-18.69,2.833 -18.278,1.828 -17.663,0.899C-17.048,-0.031 -16.298,-0.849 -15.413,-1.554C-14.528,-2.258 -13.522,-2.806 -12.397,-3.197C-11.272,-3.586 -10.11,-3.782 -8.91,-3.782C-7.591,-3.782 -6.293,-3.526 -5.018,-3.016C-3.743,-2.507 -2.61,-1.786 -1.62,-0.856C-0.63,0.074 0.164,1.184 0.765,2.473C1.364,3.764 1.665,5.203 1.665,6.793C1.665,8.324 1.379,9.734 0.81,11.024C0.239,12.314 -0.533,13.424 -1.508,14.354C-2.483,15.284 -3.608,16.011 -4.883,16.535C-6.158,17.061 -7.501,17.324 -8.91,17.324C-9.961,17.324 -10.943,17.189 -11.857,16.918C-12.773,16.649 -13.605,16.288 -14.355,15.838C-15.105,15.388 -15.772,14.878 -16.357,14.309C-16.942,13.739 -17.431,13.154 -17.82,12.553C-18.69,11.203 -19.245,9.666 -19.485,7.941C-19.726,6.216 -19.846,4.364 -19.846,2.383C-19.846,0.493 -19.665,-1.441 -19.306,-3.422C-18.945,-5.402 -18.323,-7.202 -17.437,-8.822C-16.554,-10.441 -15.376,-11.761 -13.905,-12.782C-12.436,-13.801 -10.575,-14.311 -8.325,-14.311C-7.006,-14.311 -5.798,-14.109 -4.703,-13.704C-3.608,-13.299 -2.655,-12.752 -1.846,-12.061C-1.035,-11.371 -0.376,-10.554 0.135,-9.609C0.645,-8.664 0.975,-7.652 1.125,-6.572L0.225,-6.572C-0.075,-7.951 -0.548,-9.084 -1.192,-9.969" style="fill:rgb(36,31,31);fill-rule:nonzero;"/>
        </g>
        <g transform="matrix(1,0,0,1,43.6126,61.5161)">
            <path d="M0,19.592C14.086,19.592 26.346,11.644 32.545,0L-32.547,0C-26.348,11.644 -14.087,19.592 0,19.592" style="fill:rgb(241,210,161);fill-rule:nonzero;"/>
        </g>
        <g transform="matrix(1,0,0,1,43.9275,83.6275)">
            <path d="M0,-79.37C-21.917,-79.37 -39.685,-61.602 -39.685,-39.685C-39.685,-17.767 -21.917,0 0,0C21.917,0 39.685,-17.767 39.685,-39.685C39.685,-61.602 21.917,-79.37 0,-79.37M0,-73.701C18.756,-73.701 34.016,-58.441 34.016,-39.685C34.016,-20.929 18.756,-5.67 0,-5.67C-18.756,-5.67 -34.016,-20.929 -34.016,-39.685C-34.016,-58.441 -18.756,-73.701 0,-73.701" style="fill:rgb(142,88,26);fill-rule:nonzero;"/>
        </g>
        <g transform="matrix(1,0,0,1,43.9275,83.6275)">
            <path d="M0,-79.37C-21.917,-79.37 -39.685,-61.602 -39.685,-39.685C-39.685,-17.767 -21.917,0 0,0C21.917,0 39.685,-17.767 39.685,-39.685C39.685,-61.602 21.917,-79.37 0,-79.37M0,-73.701C18.756,-73.701 34.016,-58.441 34.016,-39.685C34.016,-20.929 18.756,-5.67 0,-5.67C-18.756,-5.67 -34.016,-20.929 -34.016,-39.685C-34.016,-58.441 -18.756,-73.701 0,-73.701" style="fill:rgb(142,88,26);fill-rule:nonzero;"/>
        </g>
        <g transform="matrix(1,0,0,1,43.9275,83.6275)">
            <path d="M0,-79.37C-21.917,-79.37 -39.685,-61.602 -39.685,-39.685C-39.685,-17.767 -21.917,0 0,0C21.917,0 39.685,-17.767 39.685,-39.685C39.685,-61.602 21.917,-79.37 0,-79.37M0,-73.701C18.756,-73.701 34.016,-58.441 34.016,-39.685C34.016,-20.929 18.756,-5.67 0,-5.67C-18.756,-5.67 -34.016,-20.929 -34.016,-39.685C-34.016,-58.441 -18.756,-73.701 0,-73.701" style="fill:rgb(142,88,24);fill-rule:nonzero;"/>
        </g>
        <g transform="matrix(1,0,0,1,44.7014,24.7021)">
            <path d="M0,35.114L4.663,35.114C4.756,35.114 4.832,35.038 4.832,34.944L4.757,18.466C4.755,18.036 5.074,17.672 5.501,17.618C5.779,17.575 6.252,17.519 10.955,22.942C13.178,25.506 14.978,28.108 15.32,28.713C16.63,31.029 16.034,32.768 14.861,33.465C13.878,34.047 12.359,33.897 11.281,32.569L10.544,32.636C10.886,33.432 11.837,34.015 12.798,34.28C14.408,34.723 16.412,34.44 17.266,32.815C18.812,29.872 17.145,16.025 15.702,10.734C15.485,9.938 15.508,9.253 15.531,8.591C15.578,7.231 15.626,5.826 13.541,2.814C13.173,2.284 13.225,1.671 13.271,1.13C13.3,0.785 13.333,0.393 13.215,0.264C13.104,0.141 12.724,0.008 11.99,0C11.557,-0.001 10.667,0.035 9.765,0.075C8.838,0.116 7.891,0.157 7.348,0.157C6.818,0.157 5.823,1.001 5.096,1.617C4.125,2.44 3.359,3.091 2.554,3.091C1.604,3.091 0.744,2.426 -0.087,1.784C-0.824,1.215 -1.586,0.627 -2.218,0.627C-4.135,0.627 -8.598,1.892 -14.867,5.46C-21.782,9.393 -27.244,12.501 -26.627,20.304C-26.102,26.934 -25.803,32.979 -25.705,35.114L-20.883,35.114C-20.825,35.114 -20.774,35.086 -20.744,35.037C-20.653,34.885 -20.548,34.7 -20.43,34.49C-19.297,32.481 -16.938,28.302 -12.204,28.302C-11.734,28.302 -11.353,28.683 -11.353,29.153L-11.353,35.114L-7.87,35.114C-7.814,35.114 -7.761,35.085 -7.732,35.038C-7.588,34.803 -7.419,34.487 -7.225,34.124C-6.056,31.947 -4.1,28.302 -0.851,28.302C-0.381,28.302 0,28.683 0,29.153L0,35.114ZM4.663,36.815L-0.851,36.815C-1.32,36.815 -1.701,36.434 -1.701,35.965L-1.701,30.154C-3.506,30.793 -4.867,33.329 -5.726,34.928C-5.939,35.325 -6.125,35.67 -6.283,35.928C-6.621,36.476 -7.228,36.815 -7.87,36.815L-12.204,36.815C-12.673,36.815 -13.054,36.434 -13.054,35.965L-13.054,30.065C-16.247,30.539 -17.981,33.612 -18.949,35.326C-19.076,35.551 -19.189,35.753 -19.29,35.918C-19.632,36.48 -20.227,36.815 -20.883,36.815L-26.519,36.815C-26.975,36.815 -27.35,36.455 -27.368,36C-27.371,35.926 -27.673,28.631 -28.322,20.439C-29.025,11.557 -22.557,7.878 -15.708,3.981C-9.158,0.254 -4.445,-1.074 -2.218,-1.074C-1.006,-1.074 0.034,-0.271 0.952,0.438C1.53,0.884 2.185,1.389 2.554,1.389C2.791,1.342 3.516,0.726 3.996,0.32C5.077,-0.597 6.194,-1.544 7.348,-1.544C7.874,-1.544 8.792,-1.585 9.69,-1.624C10.629,-1.667 11.551,-1.698 12.008,-1.701C13.177,-1.689 13.983,-1.42 14.474,-0.88C15.09,-0.202 15.018,0.651 14.965,1.273C14.948,1.475 14.922,1.781 14.955,1.874C17.346,5.321 17.282,7.167 17.231,8.649C17.211,9.234 17.194,9.739 17.343,10.287C18.47,14.419 20.831,29.686 18.771,33.606C17.478,36.068 14.612,36.544 12.347,35.92C10.042,35.286 8.617,33.679 8.715,31.827C8.737,31.405 9.066,31.063 9.487,31.025L11.611,30.831C11.938,30.787 12.241,30.956 12.411,31.228C12.916,32.041 13.603,32.233 13.992,32.002C14.437,31.738 14.58,30.858 13.84,29.551C13.57,29.075 11.804,26.517 9.669,24.057C8.924,23.197 7.538,21.718 6.468,20.592L6.533,34.94C6.533,35.975 5.694,36.815 4.663,36.815" style="fill:rgb(142,88,26);fill-rule:nonzero;"/>
        </g>
        <g transform="matrix(1,0,0,1,61.9671,27.0003)">
            <path d="M0,30.517C-0.854,32.142 -2.858,32.425 -4.467,31.982C-5.429,31.717 -6.38,31.134 -6.721,30.338L-5.985,30.271C-4.906,31.599 -3.388,31.748 -2.405,31.166C-1.232,30.47 -0.635,28.731 -1.945,26.414C-2.288,25.81 -4.088,23.207 -6.311,20.644C-8.962,17.586 -10.269,16.271 -10.954,15.712C-10.996,15.648 -11.033,15.581 -11.093,15.528C-11.892,14.818 -12.618,14.304 -13.377,13.913C-13.795,13.7 -14.308,13.864 -14.522,14.282C-14.737,14.7 -14.573,15.212 -14.155,15.427C-13.614,15.705 -13.082,16.074 -12.507,16.559L-12.434,32.646C-12.434,32.74 -12.51,32.816 -12.603,32.816L-17.266,32.816L-17.266,27.335C-16.684,27.068 -16.215,26.763 -16.135,26.709C-15.744,26.45 -15.638,25.922 -15.898,25.531C-16.158,25.14 -16.687,25.032 -17.077,25.293C-17.46,25.547 -18.251,25.978 -18.741,26.052L-18.742,26.053C-21.62,26.481 -23.399,29.792 -24.49,31.826C-24.685,32.189 -24.854,32.505 -24.998,32.74C-25.027,32.787 -25.08,32.816 -25.135,32.816L-28.619,32.816L-28.619,26.855C-28.619,26.385 -29,26.004 -29.469,26.004C-34.204,26.004 -36.563,30.183 -37.696,32.192C-37.814,32.402 -37.919,32.587 -38.01,32.739C-38.04,32.788 -38.091,32.816 -38.149,32.816L-42.97,32.816C-43.068,30.681 -43.367,24.636 -43.893,18.006C-44.51,10.203 -39.048,7.095 -32.132,3.162C-25.864,-0.406 -21.401,-1.671 -19.484,-1.671C-18.852,-1.671 -18.09,-1.084 -17.353,-0.514C-17.005,-0.246 -16.653,0.024 -16.291,0.249C-17.193,0.798 -17.945,1.128 -18.721,1.467C-19.09,1.629 -19.457,1.789 -19.837,1.972C-20.261,2.175 -20.439,2.684 -20.235,3.107C-20.089,3.412 -19.785,3.589 -19.468,3.589C-19.345,3.589 -19.219,3.562 -19.1,3.505C-18.739,3.331 -18.391,3.179 -18.04,3.026C-16.731,2.454 -15.379,1.863 -13.306,0.229L-13.305,0.228C-12.95,-0.022 -12.578,-0.335 -12.169,-0.681C-11.443,-1.297 -10.448,-2.141 -9.918,-2.141C-9.375,-2.141 -8.427,-2.182 -7.5,-2.223C-6.598,-2.263 -5.709,-2.299 -5.275,-2.298C-4.542,-2.291 -4.162,-2.157 -4.05,-2.034C-3.933,-1.905 -3.966,-1.513 -3.995,-1.169C-4.041,-0.628 -4.093,-0.014 -3.725,0.516C-1.639,3.528 -1.687,4.933 -1.734,6.292C-1.757,6.955 -1.781,7.64 -1.563,8.436C-0.121,13.727 1.546,27.574 0,30.517M0.077,7.989C-0.072,7.441 -0.055,6.936 -0.034,6.351C0.017,4.869 0.08,3.023 -2.311,-0.424C-2.343,-0.517 -2.317,-0.823 -2.3,-1.025C-2.248,-1.647 -2.175,-2.501 -2.792,-3.178C-3.283,-3.718 -4.089,-3.987 -5.258,-4C-5.715,-3.996 -6.636,-3.965 -7.576,-3.922C-8.474,-3.883 -9.392,-3.842 -9.918,-3.842C-11.072,-3.842 -12.189,-2.895 -13.27,-1.978C-13.75,-1.572 -14.475,-0.957 -14.712,-0.909C-15.081,-0.909 -15.736,-1.415 -16.313,-1.86C-17.231,-2.569 -18.271,-3.373 -19.484,-3.373C-21.71,-3.373 -26.424,-2.045 -32.974,1.683C-39.822,5.58 -46.291,9.259 -45.588,18.141C-44.939,26.332 -44.637,33.628 -44.634,33.702C-44.615,34.157 -44.24,34.517 -43.784,34.517L-38.149,34.517C-37.493,34.517 -36.897,34.182 -36.555,33.62C-36.455,33.455 -36.342,33.253 -36.214,33.028C-35.247,31.314 -33.513,28.241 -30.32,27.767L-30.32,33.666C-30.32,34.136 -29.939,34.517 -29.469,34.517L-25.135,34.517C-24.494,34.517 -23.886,34.178 -23.549,33.63C-23.39,33.371 -23.205,33.027 -22.992,32.63C-22.133,31.031 -20.772,28.495 -18.967,27.856L-18.967,33.666C-18.967,34.136 -18.586,34.517 -18.116,34.517L-12.603,34.517C-11.572,34.517 -10.732,33.677 -10.732,32.642L-10.798,18.293C-9.728,19.42 -8.341,20.899 -7.596,21.759C-5.462,24.219 -3.695,26.777 -3.426,27.252C-2.686,28.56 -2.829,29.44 -3.273,29.704C-3.663,29.935 -4.35,29.743 -4.855,28.93C-5.025,28.658 -5.328,28.489 -5.655,28.533L-7.779,28.727C-8.199,28.765 -8.528,29.107 -8.55,29.529C-8.649,31.381 -7.223,32.988 -4.918,33.621C-2.654,34.246 0.212,33.77 1.506,31.308C3.565,27.388 1.204,12.121 0.077,7.989" style="fill:rgb(142,88,26);fill-rule:nonzero;"/>
        </g>
        <g transform="matrix(1,0,0,1,61.9671,27.0003)">
            <path d="M0,30.517C-0.854,32.142 -2.858,32.425 -4.467,31.982C-5.429,31.717 -6.38,31.134 -6.721,30.338L-5.985,30.271C-4.906,31.599 -3.388,31.748 -2.405,31.166C-1.232,30.47 -0.635,28.731 -1.945,26.414C-2.288,25.81 -4.088,23.207 -6.311,20.644C-8.962,17.586 -10.269,16.271 -10.954,15.712C-10.996,15.648 -11.033,15.581 -11.093,15.528C-11.892,14.818 -12.618,14.304 -13.377,13.913C-13.795,13.7 -14.308,13.864 -14.522,14.282C-14.737,14.7 -14.573,15.212 -14.155,15.427C-13.614,15.705 -13.082,16.074 -12.507,16.559L-12.434,32.646C-12.434,32.74 -12.51,32.816 -12.603,32.816L-17.266,32.816L-17.266,27.335C-16.684,27.068 -16.215,26.763 -16.135,26.709C-15.744,26.45 -15.638,25.922 -15.898,25.531C-16.158,25.14 -16.687,25.032 -17.077,25.293C-17.46,25.547 -18.251,25.978 -18.741,26.052L-18.742,26.053C-21.62,26.481 -23.399,29.792 -24.49,31.826C-24.685,32.189 -24.854,32.505 -24.998,32.74C-25.027,32.787 -25.08,32.816 -25.135,32.816L-28.619,32.816L-28.619,26.855C-28.619,26.385 -29,26.004 -29.469,26.004C-34.204,26.004 -36.563,30.183 -37.696,32.192C-37.814,32.402 -37.919,32.587 -38.01,32.739C-38.04,32.788 -38.091,32.816 -38.149,32.816L-42.97,32.816C-43.068,30.681 -43.367,24.636 -43.893,18.006C-44.51,10.203 -39.048,7.095 -32.132,3.162C-25.864,-0.406 -21.401,-1.671 -19.484,-1.671C-18.852,-1.671 -18.09,-1.084 -17.353,-0.514C-17.005,-0.246 -16.653,0.024 -16.291,0.249C-17.193,0.798 -17.945,1.128 -18.721,1.467C-19.09,1.629 -19.457,1.789 -19.837,1.972C-20.261,2.175 -20.439,2.684 -20.235,3.107C-20.089,3.412 -19.785,3.589 -19.468,3.589C-19.345,3.589 -19.219,3.562 -19.1,3.505C-18.739,3.331 -18.391,3.179 -18.04,3.026C-16.731,2.454 -15.379,1.863 -13.306,0.229L-13.305,0.228C-12.95,-0.022 -12.578,-0.335 -12.169,-0.681C-11.443,-1.297 -10.448,-2.141 -9.918,-2.141C-9.375,-2.141 -8.427,-2.182 -7.5,-2.223C-6.598,-2.263 -5.709,-2.299 -5.275,-2.298C-4.542,-2.291 -4.162,-2.157 -4.05,-2.034C-3.933,-1.905 -3.966,-1.513 -3.995,-1.169C-4.041,-0.628 -4.093,-0.014 -3.725,0.516C-1.639,3.528 -1.687,4.933 -1.734,6.292C-1.757,6.955 -1.781,7.64 -1.563,8.436C-0.121,13.727 1.546,27.574 0,30.517M0.077,7.989C-0.072,7.441 -0.055,6.936 -0.034,6.351C0.017,4.869 0.08,3.023 -2.311,-0.424C-2.343,-0.517 -2.317,-0.823 -2.3,-1.025C-2.248,-1.647 -2.175,-2.501 -2.792,-3.178C-3.283,-3.718 -4.089,-3.987 -5.258,-4C-5.715,-3.996 -6.636,-3.965 -7.576,-3.922C-8.474,-3.883 -9.392,-3.842 -9.918,-3.842C-11.072,-3.842 -12.189,-2.895 -13.27,-1.978C-13.75,-1.572 -14.475,-0.957 -14.712,-0.909C-15.081,-0.909 -15.736,-1.415 -16.313,-1.86C-17.231,-2.569 -18.271,-3.373 -19.484,-3.373C-21.71,-3.373 -26.424,-2.045 -32.974,1.683C-39.822,5.58 -46.291,9.259 -45.588,18.141C-44.939,26.332 -44.637,33.628 -44.634,33.702C-44.615,34.157 -44.24,34.517 -43.784,34.517L-38.149,34.517C-37.493,34.517 -36.897,34.182 -36.555,33.62C-36.455,33.455 -36.342,33.253 -36.214,33.028C-35.247,31.314 -33.513,28.241 -30.32,27.767L-30.32,33.666C-30.32,34.136 -29.939,34.517 -29.469,34.517L-25.135,34.517C-24.494,34.517 -23.886,34.178 -23.549,33.63C-23.39,33.371 -23.205,33.027 -22.992,32.63C-22.133,31.031 -20.772,28.495 -18.967,27.856L-18.967,33.666C-18.967,34.136 -18.586,34.517 -18.116,34.517L-12.603,34.517C-11.572,34.517 -10.732,33.677 -10.732,32.642L-10.798,18.293C-9.728,19.42 -8.341,20.899 -7.596,21.759C-5.462,24.219 -3.695,26.777 -3.426,27.252C-2.686,28.56 -2.829,29.44 -3.273,29.704C-3.663,29.935 -4.35,29.743 -4.855,28.93C-5.025,28.658 -5.328,28.489 -5.655,28.533L-7.779,28.727C-8.199,28.765 -8.528,29.107 -8.55,29.529C-8.649,31.381 -7.223,32.988 -4.918,33.621C-2.654,34.246 0.212,33.77 1.506,31.308C3.565,27.388 1.204,12.121 0.077,7.989" style="fill:rgb(142,88,26);fill-rule:nonzero;"/>
        </g>
        <g transform="matrix(1,0,0,1,55.408,34.8377)">
            <path d="M0,2.329C-0.103,2.329 -0.207,2.318 -0.31,2.297C-0.693,2.216 -1.023,1.989 -1.238,1.66C-1.452,1.33 -1.525,0.937 -1.443,0.553C-1.424,0.464 -1.367,0.388 -1.286,0.346C-1.259,0.331 -0.608,0 0.137,0.128C0.822,0.251 1.349,0.879 1.372,0.906C1.431,0.977 1.455,1.072 1.435,1.163C1.354,1.547 1.128,1.876 0.8,2.091C0.558,2.248 0.282,2.329 0,2.329" style="fill:rgb(142,88,24);fill-rule:nonzero;"/>
        </g>
        <g transform="matrix(1,0,0,1,51.6414,34.5958)">
            <path d="M0,8.817C-0.05,12.595 2.81,15.347 9.559,15.347C15.996,15.347 22.832,11.119 22.832,4.781C22.832,0.65 20.564,-6.53 12.909,-5.536C11.876,-5.401 11.482,-4.674 12.54,-4.674C19.376,-4.674 20.746,0.588 20.746,4.713C20.746,9.463 14.966,12.97 9.593,12.97C3.747,12.97 3,10.314 3,9.004L0,8.817Z" style="fill:white;fill-rule:nonzero;"/>
        </g>
        <g transform="matrix(1,0,0,1,52.2273,34.6283)">
            <path d="M0,9.389C0.098,10.618 0.559,11.657 1.375,12.483C2.836,13.964 5.464,14.746 8.973,14.746C15.109,14.746 21.679,10.729 21.679,4.748C21.679,2.295 20.834,-1.312 18.455,-3.403C17.257,-4.455 15.789,-5.018 14.077,-5.088C18.385,-4.282 20.727,-0.884 20.727,4.68C20.727,9.88 14.55,13.504 9.007,13.504C3.289,13.504 2.084,11.022 1.883,9.506L0,9.389ZM8.973,15.881C5.099,15.881 2.271,15.005 0.568,13.28C-0.598,12.099 -1.177,10.583 -1.153,8.777C-1.151,8.621 -1.085,8.474 -0.972,8.368C-0.858,8.262 -0.707,8.207 -0.551,8.219L2.449,8.406C2.748,8.424 2.981,8.671 2.981,8.971C2.981,10.241 3.764,12.369 9.007,12.369C14.004,12.369 19.593,9.081 19.593,4.68C19.593,0.657 18.268,-4.139 11.954,-4.139C10.897,-4.139 10.776,-4.749 10.764,-4.935C10.726,-5.52 11.337,-6.011 12.25,-6.131C15.033,-6.492 17.373,-5.862 19.203,-4.255C21.868,-1.914 22.813,2.058 22.813,4.748C22.813,11.408 15.657,15.881 8.973,15.881" style="fill:rgb(142,88,26);fill-rule:nonzero;"/>
        </g>
        <g transform="matrix(1,0,0,1,28.2405,57.7671)">
            <path d="M0,1.424C-0.119,1.634 -0.223,1.82 -0.314,1.972C-0.344,2.02 -0.396,2.049 -0.454,2.049L-1.546,2.049C-1.659,2.241 -1.773,2.437 -1.871,2.609C-2.013,2.861 -2.124,3.058 -2.223,3.22C-2.343,3.419 -2.488,3.595 -2.65,3.75L-0.454,3.75C0.203,3.75 0.798,3.415 1.14,2.853C1.24,2.687 1.354,2.486 1.481,2.261C1.797,1.701 2.201,1.006 2.698,0.303L2.698,-2.326C1.418,-1.048 0.552,0.446 0,1.424" style="fill:rgb(142,88,26);fill-rule:nonzero;"/>
        </g>
    </g>
</svg>
